<svg width="1440" height="595" viewBox="0 0 1440 595" fill="none" xmlns="http://www.w3.org/2000/svg">
<rect x="32" width="1375" height="595" rx="32" fill="#0F0001"/>
<g opacity="0.64" clip-path="url(#clip0_0_1)">
<path d="M106.82 601.133C101.013 601.133 95.3243 600.363 89.7543 598.822C84.1843 597.163 79.0884 594.911 74.4665 592.067C69.9631 589.223 66.23 586.023 63.2673 582.468C60.3045 578.794 58.5268 574.942 57.9343 570.913L90.6432 561.847C91.7098 564.81 93.5467 567.358 96.1539 569.491C98.7611 571.506 102.139 572.631 106.287 572.868C109.605 572.987 112.508 572.098 114.997 570.202C117.604 568.306 118.908 565.817 118.908 562.736C118.908 560.721 118.138 558.825 116.597 557.047C115.175 555.151 112.864 553.788 109.664 552.959L90.9987 548.159C84.5991 546.5 79.0884 543.952 74.4665 540.515C69.9631 537.078 66.467 532.871 63.9783 527.894C61.6081 522.916 60.423 517.346 60.423 511.184C60.423 498.977 64.4524 489.496 72.5111 482.741C80.6883 475.868 92.1245 472.431 106.82 472.431C114.642 472.431 121.515 473.438 127.441 475.453C133.485 477.468 138.64 480.667 142.906 485.052C147.291 489.319 150.906 494.948 153.75 501.94L121.219 511.362C120.626 508.991 119.086 506.621 116.597 504.251C114.227 501.881 110.968 500.696 106.82 500.696C102.79 500.696 99.6499 501.584 97.3982 503.362C95.2651 505.14 94.1985 507.747 94.1985 511.184C94.1985 513.317 95.0873 515.213 96.865 516.872C98.6426 518.413 101.191 519.598 104.509 520.428L123.352 525.227C132.833 527.597 140.24 532.279 145.573 539.271C150.906 546.144 153.572 554.025 153.572 562.914C153.572 571.091 151.676 578.024 147.884 583.712C144.21 589.401 138.877 593.726 131.885 596.689C124.893 599.652 116.538 601.133 106.82 601.133ZM222.239 601.133C211.217 601.133 203.04 598.526 197.707 593.312C192.374 588.097 189.708 580.631 189.708 570.913V482.386H221.705V562.203C221.705 565.521 222.18 567.891 223.128 569.313C224.076 570.735 225.676 571.446 227.927 571.446C228.875 571.446 230.06 571.15 231.483 570.558C232.905 569.965 234.031 569.372 234.86 568.78L245.704 591.889C242.978 594.26 239.423 596.393 235.038 598.289C230.653 600.185 226.387 601.133 222.239 601.133ZM176.375 536.782V510.117H240.015V536.782H176.375ZM330.049 599L328.271 582.646V510.117H360.269V599H330.049ZM272.63 555.625V510.117H304.628V555.625H272.63ZM304.628 555.625C304.628 558.943 304.984 561.728 305.695 563.98C306.524 566.232 307.65 567.95 309.072 569.135C310.613 570.32 312.509 570.972 314.761 571.091C319.264 571.209 322.642 570.143 324.893 567.891C327.145 565.639 328.271 562.143 328.271 557.403H336.981C336.981 566.765 335.559 574.705 332.715 581.223C329.871 587.742 326.019 592.719 321.16 596.156C316.301 599.474 310.791 601.133 304.628 601.133C297.399 601.133 291.414 599.711 286.674 596.867C281.933 593.904 278.378 589.46 276.008 583.534C273.756 577.609 272.63 570.083 272.63 560.958V555.625H304.628ZM452.67 599L451.07 582.468V474.564H483.068V599H452.67ZM427.427 601.133C419.013 601.133 411.784 599.296 405.74 595.622C399.814 591.949 395.251 586.616 392.052 579.624C388.852 572.631 387.252 564.276 387.252 554.559C387.252 544.722 388.852 536.367 392.052 529.494C395.251 522.502 399.814 517.169 405.74 513.495C411.784 509.821 419.013 507.984 427.427 507.984C434.775 507.984 440.819 509.821 445.559 513.495C450.418 517.169 453.973 522.502 456.225 529.494C458.595 536.367 459.78 544.722 459.78 554.559C459.78 564.276 458.595 572.631 456.225 579.624C453.973 586.616 450.418 591.949 445.559 595.622C440.819 599.296 434.775 601.133 427.427 601.133ZM435.96 571.624C438.923 571.624 441.53 570.913 443.781 569.491C446.152 567.95 447.989 565.936 449.292 563.447C450.596 560.84 451.248 557.877 451.248 554.559C451.248 551.24 450.596 548.337 449.292 545.848C447.989 543.241 446.152 541.226 443.781 539.804C441.53 538.382 438.863 537.671 435.782 537.671C432.938 537.671 430.39 538.382 428.138 539.804C425.886 541.226 424.109 543.241 422.805 545.848C421.502 548.337 420.79 551.24 420.672 554.559C420.79 557.877 421.502 560.84 422.805 563.447C424.109 565.936 425.886 567.95 428.138 569.491C430.508 570.913 433.116 571.624 435.96 571.624ZM559.362 601.133C549.762 601.133 541.229 599.178 533.763 595.267C526.297 591.356 520.431 585.905 516.164 578.912C512.017 571.92 509.943 563.802 509.943 554.559C509.943 545.315 512.017 537.197 516.164 530.205C520.312 523.213 526.06 517.761 533.408 513.85C540.755 509.939 549.229 507.984 558.828 507.984C567.954 507.984 575.953 509.999 582.827 514.028C589.819 517.939 595.27 523.924 599.181 531.982C603.21 540.041 605.225 550.233 605.225 562.558H538.741L542.652 557.936C542.652 561.728 543.244 565.047 544.429 567.891C545.614 570.735 547.392 572.928 549.762 574.468C552.132 576.009 555.036 576.779 558.473 576.779C562.384 576.779 565.761 575.89 568.605 574.113C571.568 572.217 573.405 569.906 574.116 567.18L602.203 575.89C600.07 582.053 596.633 587.03 591.893 590.823C587.271 594.497 582.056 597.163 576.249 598.822C570.561 600.363 564.931 601.133 559.362 601.133ZM542.829 548.159L539.452 543.004H576.249L573.049 548.159C573.049 543.537 572.279 539.923 570.739 537.315C569.198 534.708 567.242 532.871 564.872 531.805C562.621 530.619 560.31 530.027 557.939 530.027C555.451 530.027 553.021 530.619 550.651 531.805C548.399 532.871 546.503 534.708 544.962 537.315C543.54 539.923 542.829 543.537 542.829 548.159ZM630.481 599V510.117H660.701L662.479 526.472V599H630.481ZM686.121 599V553.492H718.119V599H686.121ZM686.121 553.492C686.121 550.055 685.707 547.27 684.877 545.137C684.166 542.885 683.04 541.167 681.499 539.982C680.077 538.797 678.24 538.145 675.989 538.026C671.485 537.789 668.108 538.797 665.856 541.048C663.604 543.3 662.479 546.855 662.479 551.714H653.768C653.768 542.352 655.19 534.412 658.034 527.894C660.879 521.376 664.73 516.458 669.589 513.139C674.448 509.702 679.959 507.984 686.121 507.984C693.35 507.984 699.335 509.465 704.076 512.428C708.816 515.272 712.312 519.657 714.564 525.583C716.934 531.508 718.119 539.034 718.119 548.159V553.492H686.121ZM788.3 601.133C777.278 601.133 769.101 598.526 763.768 593.312C758.435 588.097 755.768 580.631 755.768 570.913V482.386H787.766V562.203C787.766 565.521 788.24 567.891 789.188 569.313C790.136 570.735 791.736 571.446 793.988 571.446C794.936 571.446 796.121 571.15 797.543 570.558C798.965 569.965 800.091 569.372 800.921 568.78L811.765 591.889C809.039 594.26 805.484 596.393 801.099 598.289C796.714 600.185 792.447 601.133 788.3 601.133ZM742.436 536.782V510.117H806.076V536.782H742.436ZM926.176 599V504.784H890.978V474.564H994.082V504.784H959.062V599H926.176ZM1039.71 553.67C1039.71 544.07 1041.6 536.012 1045.39 529.494C1049.31 522.976 1054.22 518.057 1060.15 514.739C1066.07 511.421 1072.24 509.762 1078.64 509.762V541.048C1073.07 541.048 1067.85 541.582 1062.99 542.648C1058.25 543.596 1054.4 545.078 1051.44 547.092C1048.59 549.107 1047.17 551.537 1047.17 554.381L1039.71 553.67ZM1015.17 599V510.117H1047.17V599H1015.17ZM1106.49 599V510.117H1138.48V599H1106.49ZM1122.48 501.584C1117.74 501.584 1113.6 499.807 1110.04 496.251C1106.49 492.696 1104.71 488.548 1104.71 483.808C1104.71 478.949 1106.49 474.801 1110.04 471.364C1113.6 467.809 1117.74 466.031 1122.48 466.031C1127.34 466.031 1131.49 467.809 1134.93 471.364C1138.48 474.801 1140.26 478.949 1140.26 483.808C1140.26 488.548 1138.48 492.696 1134.93 496.251C1131.49 499.807 1127.34 501.584 1122.48 501.584ZM1171.67 599V474.564H1203.67V582.468L1202.07 599H1171.67ZM1227.49 601.133C1220.14 601.133 1214.04 599.296 1209.18 595.622C1204.44 591.949 1200.89 586.616 1198.52 579.624C1196.26 572.631 1195.14 564.276 1195.14 554.559C1195.14 544.722 1196.26 536.367 1198.52 529.494C1200.89 522.502 1204.44 517.169 1209.18 513.495C1214.04 509.821 1220.14 507.984 1227.49 507.984C1235.91 507.984 1243.08 509.821 1249 513.495C1255.04 517.169 1259.67 522.502 1262.87 529.494C1266.07 536.367 1267.67 544.722 1267.67 554.559C1267.67 564.276 1266.07 572.631 1262.87 579.624C1259.67 586.616 1255.04 591.949 1249 595.622C1243.08 599.296 1235.91 601.133 1227.49 601.133ZM1218.96 571.624C1221.92 571.624 1224.53 570.913 1226.78 569.491C1229.03 567.95 1230.81 565.936 1232.11 563.447C1233.54 560.84 1234.25 557.877 1234.25 554.559C1234.25 551.24 1233.59 548.337 1232.29 545.848C1230.99 543.241 1229.21 541.226 1226.96 539.804C1224.71 538.382 1222.1 537.671 1219.14 537.671C1216.17 537.671 1213.51 538.382 1211.14 539.804C1208.77 541.226 1206.93 543.241 1205.63 545.848C1204.32 548.337 1203.67 551.24 1203.67 554.559C1203.67 557.877 1204.32 560.84 1205.63 563.447C1206.93 565.936 1208.71 567.95 1210.96 569.491C1213.33 570.913 1216 571.624 1218.96 571.624ZM1339.69 601.133C1330.09 601.133 1321.55 599.178 1314.09 595.267C1306.62 591.356 1300.75 585.905 1296.49 578.912C1292.34 571.92 1290.27 563.802 1290.27 554.559C1290.27 545.315 1292.34 537.197 1296.49 530.205C1300.64 523.213 1306.38 517.761 1313.73 513.85C1321.08 509.939 1329.55 507.984 1339.15 507.984C1348.28 507.984 1356.28 509.999 1363.15 514.028C1370.14 517.939 1375.59 523.924 1379.5 531.982C1383.53 540.041 1385.55 550.233 1385.55 562.558H1319.06L1322.98 557.936C1322.98 561.728 1323.57 565.047 1324.75 567.891C1325.94 570.735 1327.72 572.928 1330.09 574.468C1332.46 576.009 1335.36 576.779 1338.8 576.779C1342.71 576.779 1346.08 575.89 1348.93 574.113C1351.89 572.217 1353.73 569.906 1354.44 567.18L1382.53 575.89C1380.39 582.053 1376.96 587.03 1372.22 590.823C1367.59 594.497 1362.38 597.163 1356.57 598.822C1350.88 600.363 1345.26 601.133 1339.69 601.133ZM1323.15 548.159L1319.78 543.004H1356.57L1353.37 548.159C1353.37 543.537 1352.6 539.923 1351.06 537.315C1349.52 534.708 1347.57 532.871 1345.2 531.805C1342.94 530.619 1340.63 530.027 1338.26 530.027C1335.77 530.027 1333.35 530.619 1330.97 531.805C1328.72 532.871 1326.83 534.708 1325.29 537.315C1323.86 539.923 1323.15 543.537 1323.15 548.159Z" fill="#840000"/>
</g>
<defs>
<clipPath id="clip0_0_1">
<rect width="1442" height="162" fill="white" transform="translate(-1 432)"/>
</clipPath>
</defs>
</svg>